<?xml version="1.0" encoding="UTF-8" standalone="no"?>
<!-- Created with Inkscape (http://www.inkscape.org/) -->

<svg
   xmlns:dc="http://purl.org/dc/elements/1.1/"
   xmlns:cc="http://creativecommons.org/ns#"
   xmlns:rdf="http://www.w3.org/1999/02/22-rdf-syntax-ns#"
   xmlns:svg="http://www.w3.org/2000/svg"
   xmlns="http://www.w3.org/2000/svg"
   xmlns:xlink="http://www.w3.org/1999/xlink"
   xmlns:sodipodi="http://sodipodi.sourceforge.net/DTD/sodipodi-0.dtd"
   xmlns:inkscape="http://www.inkscape.org/namespaces/inkscape"
   width="512"
   height="512"
   id="svg3003"
   version="1.1"
   inkscape:version="0.48.4 r9939"
   sodipodi:docname="ic_menu_logo.svg"
   inkscape:export-xdpi="90"
   inkscape:export-ydpi="90">
  <defs
     id="defs3005" />
  <sodipodi:namedview
     id="base"
     pagecolor="#5a5a5a"
     bordercolor="#666666"
     borderopacity="1.0"
     inkscape:pageopacity="0"
     inkscape:pageshadow="2"
     inkscape:zoom="1.1476675"
     inkscape:cx="132.90489"
     inkscape:cy="256.93041"
     inkscape:document-units="px"
     inkscape:current-layer="layer1"
     showgrid="false"
     inkscape:window-width="1920"
     inkscape:window-height="1018"
     inkscape:window-x="-8"
     inkscape:window-y="-8"
     inkscape:window-maximized="1"
     inkscape:snap-global="false"
     showguides="true">
    <inkscape:grid
       type="xygrid"
       id="grid4292"
       empspacing="5"
       visible="true"
       enabled="true"
       snapvisiblegridlinesonly="true" />
  </sodipodi:namedview>
  <metadata
     id="metadata3008">
    <rdf:RDF>
      <cc:Work
         rdf:about="">
        <dc:format>image/svg+xml</dc:format>
        <dc:type
           rdf:resource="http://purl.org/dc/dcmitype/StillImage" />
        <dc:title />
      </cc:Work>
    </rdf:RDF>
  </metadata>
  <g
     inkscape:label="Layer 1"
     inkscape:groupmode="layer"
     id="layer1"
     transform="translate(0,-540.36218)">
    <path
       style="fill:#f2f2f2;fill-opacity:1;stroke:none"
       d="M 96.53125 66 C 76.269968 68.97962 60.998454 162.3181 61 255.75 C 61.0017 349.1819 76.276144 442.7072 96.53125 446 C 121.86333 446 214.78089 417.94943 297.0625 375 C 379.3441 332.05058 451 274.21691 451 256 C 451 238.25435 379.33819 180.40368 297.0625 137.34375 C 214.15384 93.95256 121.88698 66 96.53125 66 z M 208 179 C 250.52593 179 285 213.47406 285 256 C 285 298.52594 250.52593 333 208 333 C 165.47408 333 131 298.52594 131 256 C 131 228.21082 145.97284 204.25604 168.0625 190.75 C 168.0625 190.75 170.72792 188.58692 172.5 191.65625 C 179.23997 203.33022 179.0068 202.95121 182.15625 208.40625 C 183.77529 211.21049 181.15625 212.625 181.15625 212.625 C 166.54603 221.65185 156.65625 237.56232 156.65625 256 C 156.65625 284.35062 179.64939 307.34375 208 307.34375 C 236.35061 307.34375 259.34375 284.35062 259.34375 256 C 259.34375 232.07917 242.98636 211.97828 220.84375 206.28125 L 220.84375 251.78125 C 220.84375 254.68438 219.09157 256 216.625 256 L 199.375 256 C 196.90843 256 195.15625 254.68438 195.15625 251.78125 L 195.15625 223.5 L 195.15625 206.28125 L 195.15625 180.1875 C 199.34283 179.48278 203.61304 179 208 179 z "
       transform="translate(0,540.36218)"
       id="rect3011-7" />
  </g>
</svg>
